<svg xmlns="http://www.w3.org/2000/svg" width="363.79" height="386.971" viewBox="0 0 363.79 386.971">
  <rect y="129.851" width="9.596" height="2.399" fill="#282828" />
  <line x1="63.571" y1="78.274" x2="77.965" y2="78.274" fill="none" stroke="#000" stroke-miterlimit="8" stroke-width="2.399" />
  <path d="M64.371,190.923a2.436,2.436,0,0,0,3.9,0h0c1.3-1.3,1.3-3.249,0-3.9L12.394,130.5a5.55,5.55,0,0,0-4.548,0h0a5.55,5.55,0,0,0,0,4.548Z" fill="#b2b2b2" fill-rule="evenodd" />
  <path d="M68.269,79.674a2.289,2.289,0,0,0,0-3.748h0a2.5,2.5,0,0,0-3.9,0L7.846,129.651a5.15,5.15,0,0,0,0,4.373h0a5.753,5.753,0,0,0,4.548,0Z" fill="#b2b2b2" fill-rule="evenodd" />
  <path d="M81.906,73.99c0,.685.685.685,1.371.685h0c.685,0,.685-.685.685-1.371l-2.056-7.539a2.394,2.394,0,0,0-1.371-.685h0c-.685.685-1.371,1.371-.685,2.056Z" fill="#282828" fill-rule="evenodd" />
  <path d="M77.15,82.6l-2.606-7.63h0c0-1.272,2.606-3.179,6.515-4.451,3.258-.636,6.516-.636,7.167,0l2.606,8.266s20.2,7.63,26.062,26.706c.652,3.815-8.47,9.538-21.5,13.353-12.38,3.815-24.108,3.815-24.759,0h-.652C64.771,100.4,77.15,82.6,77.15,82.6Z" fill="#b2b2b2" fill-rule="evenodd" />
  <path d="M40.782,204.217a35.024,35.024,0,0,1,52.776,0Z" fill="#b2b2b2" fill-rule="evenodd" />
  <path d="M38.383,209.015a2.312,2.312,0,0,0,2.617,2.4H93.34a2.312,2.312,0,0,0,2.617-2.4h0a2.705,2.705,0,0,0-2.617-2.4H41A2.705,2.705,0,0,0,38.383,209.015Z" fill="#b2b2b2" fill-rule="evenodd" />
  <rect x="38.383" y="209.015" width="57.574" height="2.399" fill="#b2b2b2" />
  <rect x="49.281" y="322.692" width="286.961" height="13.774" fill="#8e562e" />
  <polygon points="53.873 235.456 70.253 235.456 72.238 223.977 56.355 223.977 53.873 235.456" fill="#8e562e" fill-rule="evenodd" />
  <polygon points="26.325 386.971 43.815 386.971 72.238 223.977 54.748 223.977 26.325 386.971" fill="#ab845f" fill-rule="evenodd" />
  <polygon points="74.534 386.971 57.043 386.971 28.62 223.977 46.111 223.977 74.534 386.971" fill="#8e562e" fill-rule="evenodd" />
  <polygon points="49.281 235.456 29.737 235.456 28.62 223.977 46.489 223.977 49.281 235.456" fill="#8e562e" fill-rule="evenodd" />
  <polygon points="26.325 386.971 44.69 386.971 60.76 302.031 41.247 302.031 26.325 386.971" fill="#ab845f" fill-rule="evenodd" />
  <polygon points="306.398 386.971 324.436 386.971 352.312 223.977 334.821 223.977 306.398 386.971" fill="#ab845f" fill-rule="evenodd" />
  <polygon points="354.608 386.971 336.57 386.971 308.694 223.977 326.185 223.977 354.608 386.971" fill="#8e562e" fill-rule="evenodd" />
  <polygon points="327.059 235.456 310.735 235.456 308.694 223.977 325.019 223.977 327.059 235.456" fill="#8e562e" fill-rule="evenodd" />
  <polygon points="306.398 386.971 325.027 386.971 340.834 302.031 321.076 302.031 306.398 386.971" fill="#ab845f" fill-rule="evenodd" />
  <rect x="19.438" y="212.499" width="344.353" height="13.774" fill="#ab845f" />
  <rect x="320.172" y="212.499" width="43.618" height="13.774" fill="#8e562e" />
  <polygon points="55.286 226.273 72.238 226.273 68.53 244.638 51.577 244.638 55.286 226.273" fill="#8e562e" fill-rule="evenodd" />
  <polygon points="349.05 244.638 331.651 244.638 334.913 226.273 352.312 226.273 349.05 244.638" fill="#8e562e" fill-rule="evenodd" />
  <rect x="42.394" y="226.273" width="303.031" height="9.183" fill="#8e562e" />
</svg>